<svg xmlns="http://www.w3.org/2000/svg" viewBox="0 0 2055 1238" width="2055" height="1238">
<g class="hk-geo">
<rect x="0" y="0" width="2055" height="1238" fill="#BBE2F1"/>
<path d="M1510.57 579.78L1553.25 622.47C1554.75 623.97 1554.75 626.39 1553.25 627.88L1524.83 656.31C1523.34 657.80 1520.91 657.80 1519.42 656.31L1476.73 613.62L1290.21 800.10C1286.77 803.19 1282.33 805.20 1277.44 805.59L705.13 805.59C700.33 805.35 695.60 803.53 691.78 800.12L669.73 778.04L669.69 778.08C665.81 774.20 663.39 768.85 663.32 762.95L663.30 762.88L663.30 737.72L663.30 737.70C663.30 732.16 665.41 726.61 669.63 722.37L669.69 722.23L702.12 689.86L702.09 689.86C706.04 685.90 708.18 680.80 708.45 675.62L708.45 508.25C708.40 503.05 706.52 498.28 703.42 494.57L693.00 484.14L693.00 484.15C689.30 480.45 684.61 478.37 679.78 477.88L307.84 477.88C295.82 477.88 286.05 468.14 286.05 456.12L286.05 430.19C285.19 418.96 275.79 410.11 264.34 410.11L264.30 410.07L152.95 410.07C140.94 410.07 131.10 400.32 131.10 388.30L131.10 57.10C131.10 45.08 140.84 35.36 152.86 35.36L1148.79 35.36L1262.34 148.87C1265.16 152.39 1266.91 156.80 1267.10 161.61L1267.10 274.86C1267.10 280.50 1271.63 285.21 1277.13 285.76L1329.89 285.76C1335.90 285.76 1340.76 280.87 1340.76 274.86L1340.76 54.90C1341.83 44.33 1350.49 35.99 1361.21 35.41L2054.72 35.41L2054.72 285.79L1826.41 285.79C1814.88 285.79 1805.45 294.76 1804.70 306.11L1804.70 434.49C1805.18 445.69 1814.11 454.70 1825.28 455.28L1911.47 455.28C1921.78 456.35 1929.96 464.61 1930.88 474.97L1930.88 785.94C1929.75 796.89 1920.49 805.48 1909.24 805.48L1710.41 805.48C1705.94 805.19 1701.55 803.57 1697.91 800.53L1595.10 697.67C1592.04 694.08 1590.12 689.47 1589.93 684.43L1589.93 578.71L1589.92 578.69C1589.92 566.88 1580.52 557.28 1568.80 556.94L1542.30 556.94C1536.68 556.95 1531.56 559.09 1527.71 562.59L1510.57 579.78Z" fill="#FFFFFF"/>
<path d="M279.64 -7.30L442.12 156.87C446.08 160.16 450.93 161.79 455.79 161.84L620.42 161.84C626.03 161.84 631.15 159.66 635.01 156.17L657.10 134.05C660.79 130.36 665.80 127.98 671.36 127.70L681.03 127.70C686.33 127.60 691.04 125.62 694.77 122.39L749.34 67.69C753.10 63.94 760.50 62.69 765.47 62.41L1175.68 62.41L1246.40 -7.30L279.64 -7.30Z" fill="#EDEDED"/>
<path d="M118.88 941.44C106.86 941.44 97.02 931.69 97.02 919.67L97.02 771.11C97.02 759.09 106.77 749.36 118.78 749.36L294.22 749.36C299.77 749.07 304.77 746.72 308.46 743.05L497.07 554.44C505.12 547.64 516.94 547.61 525.02 554.36L578.26 607.74C581.65 611.30 583.84 616.01 584.20 621.23L584.20 741.81C583.84 746.85 581.74 751.78 577.89 755.63L577.90 755.63L566.96 766.60C563.30 769.81 558.55 771.81 553.34 771.98L502.78 771.98C497.05 771.99 491.85 774.21 487.97 777.84L329.26 936.46C325.79 939.34 321.42 941.16 316.63 941.44L118.88 941.44Z" fill="#FFFFFF"/>
<path d="M590.52 534.28L590.53 534.26L590.53 500.73L557.10 500.73L557.03 500.77C550.81 500.77 545.78 505.81 545.78 512.02L545.74 512.06L545.74 545.53L579.46 545.53C585.59 545.42 590.52 540.43 590.52 534.28" fill="#FFFFFF"/>
<path d="M959.96 1237.47L829.03 1106.51C824.89 1102.74 819.65 1100.87 814.41 1100.87L649.15 1100.87C639.01 1100.98 629.41 1109.45 629.40 1119.55L629.40 1237.45L959.96 1237.47Z" fill="#FFFFFF"/>
<path d="M1925.77 976.39C1928.75 979.90 1930.59 984.38 1930.85 989.28L1930.85 1237.45L991.74 1237.72L838.79 1084.54L838.78 1084.63C834.85 1080.70 829.78 1078.60 824.62 1078.31L468.72 1078.31C457.98 1077.57 449.38 1069.05 448.54 1058.34L448.54 888.00C448.93 883.32 450.82 878.74 454.23 875.05L468.91 860.38C472.34 857.33 476.74 855.35 481.60 854.96L1795.46 854.96C1800.59 854.98 1805.71 856.80 1809.80 860.42L1925.77 976.39Z" fill="#FFFFFF"/>
<path d="M317.05 579.78C311.24 579.91 305.99 582.30 302.17 586.13L261.56 626.72C258.34 630.41 256.55 634.92 256.24 639.51L256.24 702.57C256.97 713.49 265.75 722.22 276.70 722.83L287.49 722.83C293.20 722.70 298.36 720.39 302.17 716.68L439.07 579.78L317.05 579.78Z" fill="#FFFFFF"/>
</g>
<g class="hk-sz" stroke-linecap="butt">
<path d="M552.47 -2.00L552.47 124.32C552.47 136.40 562.26 146.19 574.34 146.19L633.68 146.19" fill="none" stroke="#C1C4C6" stroke-width="4.50"/>
<path d="M647.74 -1.78L647.74 90.50C647.74 102.58 657.53 112.37 669.61 112.37L692.97 112.37" fill="none" stroke="#C1C4C6" stroke-width="4.50"/>
<path d="M637.60 146.11C637.60 148.30 635.82 150.08 633.62 150.08C631.43 150.08 629.65 148.30 629.65 146.11C629.65 143.91 631.43 142.14 633.62 142.14C635.82 142.14 637.60 143.91 637.60 146.11" fill="#EDEDED"/>
<path d="M697.04 112.37C697.04 114.56 695.26 116.34 693.07 116.34C690.88 116.34 689.10 114.56 689.10 112.37C689.10 110.17 690.88 108.39 693.07 108.39C695.26 108.39 697.04 110.17 697.04 112.37" fill="#EDEDED"/>
<path d="M637.60 146.11C637.60 148.30 635.82 150.08 633.62 150.08C631.43 150.08 629.65 148.30 629.65 146.11C629.65 143.91 631.43 142.14 633.62 142.14C635.82 142.14 637.60 143.91 637.60 146.11Z" fill="none" stroke="#C1C4C6" stroke-width="1.15"/>
<path d="M697.04 112.37C697.04 114.56 695.26 116.34 693.07 116.34C690.88 116.34 689.10 114.56 689.10 112.37C689.10 110.17 690.88 108.39 693.07 108.39C695.26 108.39 697.04 110.17 697.04 112.37Z" fill="none" stroke="#C1C4C6" stroke-width="1.15"/>
</g>
<g class="hk-race">
<path d="M1228.30 179.88L1235.57 179.88C1247.65 179.88 1257.44 189.67 1257.44 201.75L1257.44 211.86C1257.44 223.64 1248.12 233.26 1236.45 233.71L1228.30 233.71" fill="none" stroke="#5EB7E8" stroke-width="8.15" stroke-dasharray="7.65 4.72" stroke-linecap="butt"/>
<path d="M1231.77 179.88L1228.40 179.88" fill="none" stroke="#5EB7E8" stroke-width="8.15" stroke-linecap="butt"/>
</g>
<g class="hk-conn" stroke-linecap="butt">
<path d="M889.68 885.13L889.68 893.16" fill="none" stroke="#001F50" stroke-width="1.72"/>
<path d="M748.71 740.26L846.03 740.26" fill="none" stroke="#001F50" stroke-width="2.00" stroke-dasharray="3.60 2.25"/>
<path d="M846.60 740.26L928.77 740.26" fill="none" stroke="#001F50" stroke-width="2.00" stroke-dasharray="3.70 2.35"/>
<path d="M1081.08 790.00L1046.58 753.75" fill="none" stroke="#001F50" stroke-width="2.00" stroke-dasharray="3.60 2.25"/>
</g>
<g class="hk-icons">
<g transform="translate(524.37 740.28)">
<rect width="29.33" height="29.33" rx="2.05" fill="#001F50"/>
<g transform="translate(2.93 2.93) scale(23.46)"><g fill="#FFF" transform="scale(0.04167)"><path d="M19.35,19v-2.05h-.85v-5.41c2.62-.13,3.5-1.92,3.5-1.92-2.75,0-4.75-2.69-5.12-3.21-.38-.64.38-.77.38-.77v-.64H6.75v.64s.75.13.38.77c-.38.64-2.38,3.21-5.13,3.21,0,0,.87,1.79,3.62,2.05v5.28h-.98v2.05h14.71ZM7.17,16.95v-5.15h2.36v5.15h-2.36ZM10.82,16.95v-5.15h2.36v5.15h-2.36ZM14.47,16.95v-5.15h2.36v5.15h-2.36Z"/></g></g>
</g>
<g transform="translate(338.50 790.50)">
<rect width="29.33" height="29.33" rx="2.05" fill="#001F50"/>
<g transform="translate(2.93 2.93) scale(23.47)"><g fill="#FFF" transform="scale(0.04167)"><ellipse cx="9.62" cy="15.14" rx=".75" ry=".75"/><ellipse cx="14.38" cy="15.14" rx=".75" ry=".75"/><path d="M18.75,10.82c-.09-1.05-.24-4.23-2.46-5.64-.67-.43-1.76-.64-2.69-.74l3.13-2.07-1.6-.87h-6.25l-1.6.87,3.13,2.07c-.93.1-2.02.31-2.69.74-2.22,1.42-2.37,4.59-2.46,5.64-.14,1.71-.45,4.47-.06,5.94.19.71,1.56,3.14,3.05,3.14h7.51c1.5,0,2.87-2.43,3.05-3.14.39-1.47.08-4.23-.06-5.94ZM8.3,2.38l.8-.41h5.79l.8.42-3,1.98c-.32-.02-.57-.02-.7-.02s-.38,0-.7.02l-3-1.98ZM12.56,17.06h-1.11c-1.98,0-3.67-1.35-4.19-3.18h9.5c-.53,1.83-2.21,3.18-4.2,3.18ZM16.93,12.65c0,.16,0,.32-.03.48H7.1c-.02-.16-.03-.32-.03-.48v-2.48c0-.49.08-.97.23-1.41.59-1.74,2.22-3,4.14-3h1.11c2.4,0,4.37,1.98,4.37,4.41v2.48Z"/><polygon points="9.13 20.76 7.9 20.76 6.31 22.5 8.22 22.5 9.13 20.76"/><polygon points="14.87 20.76 16.1 20.76 17.69 22.5 15.78 22.5 14.87 20.76"/><path d="M15.76,10.16v2.05h-7.53v-2.05c0-.48.07-.95.21-1.38h7.11c.14.44.21.9.21,1.38Z"/></g></g>
</g>
<g transform="translate(268.02 700.62)">
<rect width="29.33" height="29.33" rx="2.05" fill="#001F50"/>
<g transform="translate(2.93 2.93) scale(23.46)"><g fill="#FFF" transform="scale(0.04167)"><path d="M21,16.5v-2.25l-7.68-5.13v-4.88c0-.97-.53-2.25-1.32-2.25s-1.32,1.28-1.32,2.25v4.88l-7.68,5.13v2.25l7.68-3.63v5.45l-2.65,2.17v1.5l3.97-1.5,3.97,1.5v-1.5l-2.65-2.17v-5.45l7.68,3.63h0Z"/></g></g>
</g>
<g transform="translate(831.38 753.72)">
<rect width="29.33" height="29.33" rx="2.05" fill="#001F50"/>
<g transform="translate(2.93 2.93) scale(23.46)"><g fill="#FFF" transform="scale(0.04167)"><path d="M7.75,19.92h-1.41c-.06,0-.11.02-.15.06l-1.87,2.02h2.21c.07,0,.14-.04.18-.11l1.04-1.97Z"/><path d="M16.25,19.92h1.41c.06,0,.11.02.15.06l1.87,2.02h-2.21c-.07,0-.14-.04-.18-.11l-1.04-1.97Z"/><path d="M16.51,2.7c-.12-.08-.27-.12-.42-.12h-.65c-.1,0-.2-.02-.3-.06-.38-.16-.72-.32-1.37-.41-.59-.08-1.15-.11-1.78-.11s-1.2.03-1.78.11c-.65.09-.99.25-1.37.41-.09.04-.2.06-.3.06h-.65c-.15,0-.29.04-.42.12-.09.06-.17.11-.25.17.7.89.88,2.02,1.04,3.05v.09c.19,1.01.36,1.93.6,3.09l.02.09c.08.36.16.74.31,1.04h0c.33.67,1.29.72,2.49.71.1,0,.19,0,.28,0s.19,0,.28,0c1.21,0,2.16-.04,2.49-.7h0c.16-.31.24-.68.31-1.05l.02-.09c.24-1.16.41-2.08.59-3.09v-.09c.18-1.03.36-2.16,1.06-3.05-.08-.06-.16-.12-.25-.17Z"/><path d="M15.74,10.66c-.6,1.18-2.06,1.27-3.16,1.27-.11,0-.21,0-.3,0-.09,0-.19,0-.28,0s-.18,0-.28,0c-.1,0-.2,0-.3,0-1.1,0-2.57-.09-3.16-1.27-.17-.59-.5-1.76-.67-2.64-.02-.09-.09-.46-.18-.93-.07-.38-.13-.7-.17-.93v-.09c-.16-.94-.31-1.84-.79-2.52,0,0,0,0-.01.01-.35.35-1.02,1.03-1.28,2.05-.06.22-.07.46-.11.93-.03.41-.04.73-.05,1.28-.02,1.52,0,1.44-.02,1.68-.04.43-.16,1.03-.51,1.74-.11.19-.22.44-.31.74-.1.33-.13.62-.13.85,0,.09-.01.18-.02.28-.06,1.27.16,2.45.52,3.52,0,0,.51,1.37,1.36,2.11.17.14.35.23.35.23,0,0,.23.11.51.16.36.06,2.35.23,5.25.23s4.88-.18,5.25-.23c.28-.04.51-.16.51-.16,0,0,.19-.09.35-.23.85-.74,1.36-2.11,1.36-2.11.36-1.06.58-2.24.52-3.52,0-.09,0-.18-.02-.28,0-.23-.04-.52-.13-.85-.09-.3-.21-.55-.31-.74-.35-.72-.47-1.32-.51-1.74-.03-.25,0-.16-.02-1.68,0-.55-.02-.87-.05-1.28-.03-.48-.05-.72-.11-.93-.26-1.02-.93-1.7-1.28-2.05,0,0,0,0-.01-.01-.14.25-.35.65-.52,1.17-.21.67-.25,1.2-.26,1.35-.05.67-.28,1.95-1.03,4.59ZM14.45,16.91c-.76.32-1.54.31-2.42.31h-.06c-.87,0-1.66.01-2.42-.31-.81-.35-1.58-1.2-1.13-2.05.18-.35.45-.69.8-.92.72-.46,1.9-.53,2.78-.53.88,0,2.06.07,2.78.53.35.23.62.56.8.92.45.86-.32,1.7-1.13,2.05Z"/></g></g>
</g>
</g>
<g class="hk-legend">
<path d="M362.07 1196.96C362.07 1200.87 358.90 1204.05 354.98 1204.05L105.21 1204.05C101.30 1204.05 98.12 1200.87 98.12 1196.96L98.12 978.18C98.12 974.26 101.30 971.09 105.21 971.09L354.98 971.09C358.90 971.09 362.07 974.26 362.07 978.18L362.07 1196.96Z" fill="#FFFFFF" stroke="#C1C4C6" stroke-width="2.50"/>
<path d="M108.18 983.06L126.90 983.06C131.09 983.06 131.09 989.34 126.90 989.34L108.18 989.34C103.99 989.34 103.99 983.06 108.18 983.06" fill="#00888E"/>
<path d="M108.18 1008.40L126.90 1008.40C131.09 1008.40 131.09 1014.68 126.90 1014.68L108.18 1014.68C103.99 1014.68 103.99 1008.40 108.18 1008.40" fill="#EB6EA5"/>
<path d="M108.18 1033.74L126.90 1033.74C131.09 1033.74 131.09 1040.02 126.90 1040.02L108.18 1040.02C103.99 1040.02 103.99 1033.74 108.18 1033.74" fill="#5EB7E8"/>
<path d="M108.18 1059.09L126.90 1059.09C131.09 1059.09 131.09 1065.36 126.90 1065.36L108.18 1065.36C103.99 1065.36 103.99 1059.09 108.18 1059.09" fill="#0075C2"/>
<path d="M108.18 1084.43L126.90 1084.43C131.09 1084.43 131.09 1090.70 126.90 1090.70L108.18 1090.70C103.99 1090.70 103.99 1084.43 108.18 1084.43" fill="#00A040"/>
<path d="M108.18 1109.76L126.90 1109.76C131.09 1109.76 131.09 1116.05 126.90 1116.05L108.18 1116.05C103.99 1116.05 103.99 1109.76 108.18 1109.76" fill="#CBD300"/>
<path d="M108.12 1135.12L126.84 1135.12C131.03 1135.12 131.03 1141.40 126.84 1141.40L108.12 1141.40C103.93 1141.40 103.93 1135.12 108.12 1135.12" fill="#7E3C93"/>
<path d="M108.12 1160.45L126.84 1160.45C131.03 1160.45 131.03 1166.74 126.84 1166.74L108.12 1166.74C103.93 1166.74 103.93 1160.45 108.12 1160.45" fill="#E60012"/>
<path d="M108.12 1185.80L126.84 1185.80C131.03 1185.80 131.03 1192.08 126.84 1192.08L108.12 1192.08C103.93 1192.08 103.93 1185.80 108.12 1185.80" fill="#9C2E00"/>
<path d="M236.33 983.06L255.06 983.06C259.25 983.06 259.25 989.34 255.06 989.34L236.33 989.34C232.15 989.34 232.15 983.06 236.33 983.06" fill="#F3982D"/>
<path d="M236.33 1008.40L255.06 1008.40C259.25 1008.40 259.25 1014.68 255.06 1014.68L236.33 1014.68C232.15 1014.68 232.15 1008.40 236.33 1008.40" fill="#DBB400"/>
<path d="M236.33 1033.74L255.06 1033.74C259.25 1033.74 259.25 1040.03 255.06 1040.03L236.33 1040.03C232.15 1040.03 232.15 1033.74 236.33 1033.74" fill="#9C948B"/>
<path d="M236.33 1059.06L255.06 1059.06C259.25 1059.06 259.25 1065.34 255.06 1065.34L236.33 1065.34C232.15 1065.34 232.15 1059.06 236.33 1059.06" fill="#C1C4C6"/>
<path d="M240.54 1114.21L254.20 1114.21" fill="none" stroke="#001F50" stroke-width="1.03" stroke-linecap="butt"/>
<path d="M240.43 1139.55L253.92 1139.55" fill="none" stroke="#001F50" stroke-width="1.03" stroke-dasharray="2.02 0.90" stroke-linecap="butt"/>
<path d="M237.02 1114.22C237.02 1112.28 238.58 1110.71 240.51 1110.71C242.44 1110.71 244.00 1112.28 244.00 1114.22C244.00 1116.13 242.44 1117.71 240.51 1117.71C238.58 1117.71 237.02 1116.13 237.02 1114.22" fill="#FFFFFF"/>
<path d="M250.66 1114.22C250.66 1112.28 252.23 1110.71 254.15 1110.71C256.09 1110.71 257.65 1112.28 257.65 1114.22C257.65 1116.13 256.09 1117.71 254.15 1117.71C252.23 1117.71 250.66 1116.13 250.66 1114.22" fill="#FFFFFF"/>
<path d="M237.02 1139.55C237.02 1137.62 238.58 1136.05 240.51 1136.05C242.44 1136.05 244.00 1137.62 244.00 1139.55C244.00 1141.47 242.44 1143.05 240.51 1143.05C238.58 1143.05 237.02 1141.47 237.02 1139.55" fill="#FFFFFF"/>
<path d="M250.66 1139.55C250.66 1137.62 252.23 1136.05 254.15 1136.05C256.09 1136.05 257.65 1137.62 257.65 1139.55C257.65 1141.47 256.09 1143.05 254.15 1143.05C252.23 1143.05 250.66 1141.47 250.66 1139.55" fill="#FFFFFF"/>
<path d="M249.97 1161.34C248.04 1161.34 246.47 1162.90 246.47 1164.83C246.47 1166.76 248.04 1168.32 249.97 1168.32C250.75 1168.32 251.48 1168.06 252.06 1167.62C252.65 1168.06 253.37 1168.32 254.16 1168.32C256.09 1168.32 257.65 1166.76 257.65 1164.83C257.65 1162.90 256.09 1161.34 254.16 1161.34C253.37 1161.34 252.65 1161.60 252.06 1162.04C251.48 1161.60 250.75 1161.34 249.97 1161.34" fill="#FFFFFF"/>
<path d="M237.02 1114.22C237.02 1112.28 238.58 1110.71 240.51 1110.71C242.44 1110.71 244.00 1112.28 244.00 1114.22C244.00 1116.13 242.44 1117.71 240.51 1117.71C238.58 1117.71 237.02 1116.13 237.02 1114.22Z" fill="none" stroke="#001F50" stroke-width="1.03"/>
<path d="M250.66 1114.22C250.66 1112.28 252.23 1110.71 254.15 1110.71C256.09 1110.71 257.65 1112.28 257.65 1114.22C257.65 1116.13 256.09 1117.71 254.15 1117.71C252.23 1117.71 250.66 1116.13 250.66 1114.22Z" fill="none" stroke="#001F50" stroke-width="1.03"/>
<path d="M237.02 1139.55C237.02 1137.62 238.58 1136.05 240.51 1136.05C242.44 1136.05 244.00 1137.62 244.00 1139.55C244.00 1141.47 242.44 1143.05 240.51 1143.05C238.58 1143.05 237.02 1141.47 237.02 1139.55Z" fill="none" stroke="#001F50" stroke-width="1.03"/>
<path d="M250.66 1139.55C250.66 1137.62 252.23 1136.05 254.15 1136.05C256.09 1136.05 257.65 1137.62 257.65 1139.55C257.65 1141.47 256.09 1143.05 254.15 1143.05C252.23 1143.05 250.66 1141.47 250.66 1139.55Z" fill="none" stroke="#001F50" stroke-width="1.03"/>
<path d="M249.97 1161.34C248.04 1161.34 246.47 1162.90 246.47 1164.83C246.47 1166.76 248.04 1168.32 249.97 1168.32C250.75 1168.32 251.48 1168.06 252.06 1167.62C252.65 1168.06 253.37 1168.32 254.16 1168.32C256.09 1168.32 257.65 1166.76 257.65 1164.83C257.65 1162.90 256.09 1161.34 254.16 1161.34C253.37 1161.34 252.65 1161.60 252.06 1162.04C251.48 1161.60 250.75 1161.34 249.97 1161.34Z" fill="none" stroke="#001F50" stroke-width="1.03"/>
<path d="M252.06 1165.52L247.91 1165.52L247.91 1164.14L252.06 1164.14L252.06 1165.52Z" fill="#E60012"/>
<path d="M256.22 1165.52L252.06 1165.52L252.06 1164.14L256.22 1164.14L256.22 1165.52Z" fill="#00A040"/>
</g>
</svg>