<svg xmlns="http://www.w3.org/2000/svg" xmlns:xlink="http://www.w3.org/1999/xlink" fill="none" version="1.1" width="40" height="40" viewBox="0 0 40 40"><defs><clipPath id="master_svg0_146_3504"><rect x="0" y="0" width="40" height="40" rx="0"/></clipPath><clipPath id="master_svg1_146_3506"><rect x="0" y="0" width="6" height="40" rx="0"/></clipPath><clipPath id="master_svg2_146_3507"><rect x="0" y="0" width="6" height="6" rx="0"/></clipPath><clipPath id="master_svg3_146_3508"><rect x="0" y="9" width="6" height="22" rx="0"/></clipPath><clipPath id="master_svg4_146_3509"><rect x="0" y="34" width="6" height="6" rx="0"/></clipPath><clipPath id="master_svg5_146_3510"><rect x="9" y="0" width="22" height="40" rx="0"/></clipPath><clipPath id="master_svg6_146_3511"><rect x="9" y="0" width="22" height="6" rx="0"/></clipPath><clipPath id="master_svg7_146_3512"><rect x="9" y="9" width="22" height="22" rx="0"/></clipPath><clipPath id="master_svg8_146_3516"><rect x="9" y="34" width="22" height="6" rx="0"/></clipPath><clipPath id="master_svg9_146_3517"><rect x="34" y="0" width="6" height="40" rx="0"/></clipPath><clipPath id="master_svga_146_3518"><rect x="34" y="0" width="6" height="6" rx="0"/></clipPath><clipPath id="master_svgb_146_3519"><rect x="34" y="9" width="6" height="22" rx="0"/></clipPath><clipPath id="master_svgc_146_3520"><rect x="34" y="34" width="6" height="6" rx="0"/></clipPath></defs><g clip-path="url(#master_svg0_146_3504)"><g clip-path="url(#master_svg1_146_3506)"><g clip-path="url(#master_svg2_146_3507)"><rect x="0" y="0" width="6" height="6" rx="0" fill="#FFFFFF" fill-opacity="1"/></g><g clip-path="url(#master_svg3_146_3508)"><rect x="0" y="9" width="6" height="22" rx="0" fill="#FFFFFF" fill-opacity="1"/></g><g clip-path="url(#master_svg4_146_3509)"><rect x="0" y="34" width="6" height="6" rx="0" fill="#FFFFFF" fill-opacity="1"/></g></g><g clip-path="url(#master_svg5_146_3510)"><g clip-path="url(#master_svg6_146_3511)"><rect x="9" y="0" width="22" height="6" rx="0" fill="#FFFFFF" fill-opacity="1"/></g><g clip-path="url(#master_svg7_146_3512)"><g><path d="M31,9L9,9L9,31L31,31L31,9ZM9.25,27.5L30.75,27.5L30.75,27L29.75,27L29.75,26.5L29.25,26.5L28.25,26L28.25,25.5L26.75,25.5L26.75,22.5Q27.25,21.75,27.75,21.75Q28.25,21.75,28.75,21.199951L28.75,21Q27.75,21,27.25,20.5Q26.75,20,26.25,20L26.25,19.5L27.25,18.5L27.25,18Q26.25,18.5,25.25,18L24.25,17.5L24.25,17L23.25,17Q21.75,16,21.25,15.5L20.25,14.5L20.25,12L20,12.0126481L19.75,12L19.75,14.5L18.75,15.5Q18.25,16,16.75,17L15.75,17L15.75,17.5L14.75,18Q13.75,18.5,12.75,18L12.75,18.5L13.75,19.5L13.75,20Q13.25,20,12.75,20.5Q12.25,21,11.25,21L11.25,21.199951Q11.75,21.75,12.25,21.75Q12.75,21.75,13.25,22.5L13.25,25.5L11.75,25.5L11.75,26L10.75,26.5L10.25,26.5L10.25,27L9.25,27L9.25,27.5Z" fill-rule="evenodd" fill="#FFFFFF" fill-opacity="1"/></g></g><g clip-path="url(#master_svg8_146_3516)"><rect x="9" y="34" width="22" height="6" rx="0" fill="#FFFFFF" fill-opacity="1"/></g></g><g clip-path="url(#master_svg9_146_3517)"><g clip-path="url(#master_svga_146_3518)"><rect x="34" y="0" width="6" height="6" rx="0" fill="#FFFFFF" fill-opacity="1"/></g><g clip-path="url(#master_svgb_146_3519)"><rect x="34" y="9" width="6" height="22" rx="0" fill="#FFFFFF" fill-opacity="1"/></g><g clip-path="url(#master_svgc_146_3520)"><rect x="34" y="34" width="6" height="6" rx="0" fill="#FFFFFF" fill-opacity="1"/></g></g></g></svg>